<svg width="40" height="40" viewBox="0 0 40 40" fill="none" xmlns="http://www.w3.org/2000/svg">
<rect width="40" height="40" rx="20" fill="#00A9A4" fill-opacity="0.3"/>
<path d="M20 5.60001C18.4241 5.60001 16.8637 5.9104 15.4078 6.51345C13.9519 7.11651 12.629 8.00042 11.5147 9.11472C9.26428 11.3652 8 14.4174 8 17.6C8 24.2275 20 34.4 20 34.4C20 34.4 32 24.2275 32 17.6C32 14.4174 30.7357 11.3652 28.4853 9.11472C26.2348 6.86429 23.1826 5.60001 20 5.60001ZM20 26C18.3386 26 16.7146 25.5074 15.3332 24.5844C13.9518 23.6613 12.8752 22.3494 12.2394 20.8145C11.6036 19.2796 11.4373 17.5907 11.7614 15.9612C12.0855 14.3318 12.8855 12.8351 14.0603 11.6603C15.2351 10.4855 16.7318 9.68553 18.3612 9.36141C19.9907 9.03729 21.6796 9.20364 23.2145 9.83942C24.7494 10.4752 26.0613 11.5518 26.9843 12.9332C27.9074 14.3146 28.4 15.9386 28.4 17.6C28.4 19.8278 27.515 21.9644 25.9397 23.5397C24.3644 25.115 22.2278 26 20 26Z" fill="#00716E"/>
<path d="M20.8759 14.6802C20.8759 14.4509 20.7836 14.2311 20.6193 14.069C20.455 13.9069 20.2322 13.8158 19.9998 13.8158C19.7675 13.8158 19.5446 13.9069 19.3803 14.069C19.216 14.2311 19.1237 14.4509 19.1237 14.6802V16.6882L15.2939 18.1996L15.9447 18.9404L19.1237 18.5501V20.6289L17.8558 21.5786L18.6395 22.3684L19.9998 21.6973L21.3602 22.3684L22.1439 21.5786L20.8759 20.6289V18.5501L24.055 18.9404L24.7057 18.1996L20.8759 16.6882V14.6802Z" fill="#00716E"/>
</svg>
