<svg width="40" height="40" viewBox="0 0 40 40" fill="none" xmlns="http://www.w3.org/2000/svg">
<rect y="-0.00109863" width="40.0005" height="40" rx="20" fill="#00A9A4" fill-opacity="0.3"/>
<path d="M22.9212 17.4316C22.7 17.4316 22.4822 17.3275 22.3454 17.1328C22.1606 16.87 21.9637 16.6024 21.7732 16.3437C21.686 16.2251 21.5987 16.1066 21.5121 15.9878C21.2832 15.6741 21.352 15.2343 21.6658 15.0054C21.9794 14.7765 22.4193 14.8453 22.6482 15.1591C22.7337 15.2763 22.8197 15.3932 22.9058 15.5102C23.1007 15.775 23.3022 16.0488 23.4958 16.3241C23.7191 16.6418 23.6426 17.0804 23.3249 17.3037C23.202 17.3901 23.0609 17.4316 22.9212 17.4316Z" fill="#00716E"/>
<path d="M23.0541 25.5017C22.9236 25.5017 22.7916 25.4654 22.6738 25.3894C22.3474 25.179 22.2534 24.7439 22.4638 24.4175C22.694 24.0604 22.8715 23.6836 22.9912 23.2975C23.1062 22.9266 23.5001 22.7193 23.871 22.8342C24.2419 22.9492 24.4494 23.3431 24.3344 23.714C24.1769 24.2221 23.9451 24.7151 23.6457 25.1795C23.5112 25.388 23.285 25.5017 23.0541 25.5017Z" fill="#00716E"/>
<path d="M24.4468 21.4905C24.4428 21.4905 24.4387 21.4905 24.4347 21.4904C24.0464 21.4838 23.737 21.1638 23.7435 20.7755C23.7477 20.5319 23.7345 20.284 23.7044 20.0387C23.6738 19.8482 23.6305 19.6568 23.5755 19.4695C23.4661 19.0969 23.6795 18.7062 24.0521 18.5968C24.4245 18.4874 24.8154 18.7007 24.9248 19.0733C24.9979 19.3222 25.0552 19.577 25.0952 19.8309C25.0964 19.8383 25.0974 19.8457 25.0983 19.8532C25.1377 20.1676 25.1549 20.4859 25.1496 20.7992C25.1431 21.1835 24.8296 21.4905 24.4468 21.4905Z" fill="#00716E"/>
<path d="M20.5913 13.7793C20.3112 13.7793 20.0465 13.6107 19.9373 13.3344C19.727 12.8023 19.5957 12.2847 19.5357 11.7521C19.4923 11.3662 19.77 11.0182 20.1559 10.9748C20.5418 10.9309 20.8898 11.209 20.9332 11.5949C20.9791 12.0026 21.0811 12.4025 21.2451 12.8176C21.3878 13.1787 21.2108 13.5872 20.8496 13.7299C20.7648 13.7634 20.6773 13.7793 20.5913 13.7793Z" fill="#00716E"/>
<path d="M32.0002 25.4131C31.9947 25.2491 31.9285 25.0883 31.8182 24.9669L30.4987 23.5152C30.2376 23.2279 29.7928 23.2066 29.5055 23.4678C29.2181 23.729 29.1969 24.1737 29.4581 24.4611L29.7086 24.7366H26.6172C26.2289 24.7366 25.9141 25.0515 25.9141 25.4398C25.9141 25.8281 26.2289 26.1429 26.6172 26.1429H29.7086L29.4581 26.4185C29.1969 26.7058 29.2181 27.1505 29.5055 27.4117C29.7877 27.6709 30.2388 27.6529 30.4987 27.3643L31.8182 25.9127C31.9407 25.7778 32.008 25.5954 32.0002 25.4131Z" fill="#00716E"/>
<path d="M26.6172 17.5965H29.7086L29.4581 17.872C29.1969 18.1594 29.2181 18.6041 29.5055 18.8653C29.7877 19.1245 30.2388 19.1064 30.4987 18.8179L31.8182 17.3663C32.0596 17.1091 32.0598 16.6775 31.8182 16.4204L30.4987 14.9687C30.2376 14.6814 29.7928 14.6602 29.5055 14.9213C29.2181 15.1825 29.1969 15.6272 29.4581 15.9146L29.7086 16.1902H26.6172C26.2289 16.1902 25.9141 16.505 25.9141 16.8933C25.9141 17.2816 26.2289 17.5965 26.6172 17.5965Z" fill="#00716E"/>
<path d="M19.9615 28.8023C19.6914 28.8023 19.4338 28.6458 19.3178 28.3827C19.1611 28.0274 19.3221 27.6124 19.6774 27.4557C20.3943 27.1396 20.77 26.6855 20.7734 26.681C21.0124 26.3749 21.4542 26.3204 21.7604 26.5595C22.0664 26.7985 22.1208 27.2404 21.8819 27.5464C21.8241 27.6204 21.2872 28.2827 20.2448 28.7424C20.1526 28.7831 20.0562 28.8023 19.9615 28.8023Z" fill="#00716E"/>
<path d="M21.5245 18.9756C21.4959 18.7394 21.3501 18.5341 21.1368 18.4286C19.7254 17.7344 18.0749 15.8045 16.3644 12.8477C15.0369 10.5541 14.1491 8.45078 14.1402 8.42968C14.031 8.16859 13.775 7.9989 13.4919 7.9989H8.70313C8.315 7.9989 8 8.3139 8 8.70203V31.2958C8 31.6839 8.315 31.9989 8.70313 31.9989H16.0804C16.4685 31.9989 16.7835 31.6839 16.7835 31.2958V26.3748C17.9254 26.2633 18.8849 25.8634 19.6523 25.1763C21.989 23.0833 21.5442 19.1425 21.5245 18.9756Z" fill="#00716E"/>
</svg>
