<svg width="40" height="40" viewBox="0 0 40 40" fill="none" xmlns="http://www.w3.org/2000/svg">
<rect y="-0.00109863" width="40" height="40" rx="20" fill="#00A9A4" fill-opacity="0.3"/>
<path d="M26.794 25.472C25.6876 25.1131 25.0796 23.921 25.4385 22.8147C26.2698 20.2526 26.5367 18.2304 26.5877 16.8104C25.6573 16.0353 24.5025 15.6186 23.2868 15.6297C22.5045 15.6365 21.7538 15.815 21.0555 16.1601C20.3844 16.4918 19.6144 16.4918 18.9431 16.1601C18.2448 15.815 17.494 15.6365 16.7118 15.6297C15.4952 15.6185 14.341 16.0353 13.4107 16.8106C13.4617 18.2303 13.7288 20.2523 14.5601 22.8147C14.919 23.921 14.311 25.1131 13.2047 25.472C12.9935 25.5404 12.7745 25.5751 12.5535 25.5751C12.5265 25.5751 12.4995 25.5745 12.4727 25.5735C12.7555 26.425 13.1286 27.4585 13.5708 28.4421C14.6616 30.8688 15.7149 31.9989 16.8854 31.9989C17.4197 31.9989 18.1913 31.9372 18.721 31.4035C19.4046 30.7147 19.3964 29.6351 19.3829 27.8466C19.381 27.5824 19.3788 27.3005 19.3787 27.0003C19.3785 26.6506 19.6495 26.3592 19.9826 26.3507C20.1521 26.3462 20.3118 26.4089 20.4325 26.5266C20.5534 26.6444 20.62 26.8023 20.62 26.9712C20.62 27.2816 20.6178 27.5689 20.6157 27.8467C20.6022 29.6352 20.5941 30.7148 21.2777 31.4035C21.8073 31.9372 22.579 31.9989 23.1132 31.9989C24.2838 31.9989 25.337 30.8688 26.4278 28.4422C26.87 27.4585 27.2432 26.425 27.526 25.5736C27.4991 25.5746 27.4721 25.5752 27.4451 25.5752C27.224 25.5752 27.0049 25.5405 26.794 25.472Z" fill="#00716E"/>
<path d="M29.1326 13.6167C29.1326 13.6166 29.1326 13.6165 29.1325 13.6164C29.1324 13.6163 29.1324 13.6161 29.1323 13.6159C29.1242 13.5938 29.115 13.5722 29.1048 13.5512C29.1047 13.551 29.1045 13.5507 29.1044 13.5505C29.0321 13.4019 28.9074 13.278 28.743 13.2094C28.7429 13.2094 28.7429 13.2093 28.7429 13.2093C28.7425 13.2092 28.7422 13.2091 28.7419 13.2089C28.7419 13.2089 28.7418 13.2089 28.7417 13.2089C28.7413 13.2087 28.741 13.2086 28.7406 13.2084L23.527 11.0559V8.70203C23.527 8.31371 23.2121 7.9989 22.8238 7.9989H17.1754C16.7871 7.9989 16.4723 8.31371 16.4723 8.70203V11.0559L11.2586 13.2084C11.2582 13.2085 11.2579 13.2087 11.2575 13.2088C11.2574 13.2089 11.2574 13.2089 11.2573 13.2089C11.257 13.209 11.2567 13.2092 11.2564 13.2093C11.2563 13.2093 11.2563 13.2093 11.2563 13.2093C11.0918 13.2779 10.9671 13.4018 10.8948 13.5504C10.8947 13.5506 10.8946 13.5509 10.8945 13.5512C10.8843 13.5722 10.8751 13.5938 10.867 13.6158C10.8669 13.616 10.8668 13.6162 10.8667 13.6164C10.8667 13.6165 10.8667 13.6166 10.8666 13.6167C10.8596 13.6359 10.8534 13.6555 10.848 13.6753C10.775 13.9392 9.87077 17.4736 11.8852 23.6826C11.9817 23.9799 12.2573 24.1689 12.5539 24.1689C12.6258 24.1689 12.699 24.1578 12.771 24.1344C13.1404 24.0145 13.3427 23.618 13.2229 23.2486C11.6537 18.412 11.9729 15.3201 12.138 14.3667L17.3149 12.2294H22.6844L27.8611 14.3666C28.0268 15.3237 28.3447 18.4149 26.7765 23.2487C26.6566 23.618 26.8589 24.0146 27.2283 24.1344C27.3004 24.1578 27.3735 24.1689 27.4454 24.1689C27.7419 24.1689 28.0176 23.9799 28.1141 23.6826C30.1286 17.4737 29.2243 13.9392 29.1513 13.6754C29.1459 13.6555 29.1396 13.636 29.1326 13.6167Z" fill="#00716E"/>
</svg>
