<svg width="40" height="40" viewBox="0 0 40 40" fill="none" xmlns="http://www.w3.org/2000/svg">
<rect width="40" height="39.9989" rx="19.9995" fill="#00A9A4" fill-opacity="0.3"/>
<path d="M20 29.9989C21.654 29.9989 23 28.6529 23 26.9989C23 26.1779 22.655 25.3909 22.048 24.8209C19.034 16.9849 22.91 8.79887 22.95 8.71689C23.063 8.48289 22.978 8.20187 22.755 8.06889C22.533 7.9389 22.244 7.99689 22.093 8.2089C21.885 8.49887 17 15.4709 17 26.9989C17 28.6529 18.346 29.9989 20 29.9989Z" fill="#00716E"/>
<path d="M9.5 27.9989C8.672 27.9989 8 28.6709 8 29.4989C8 30.3269 8.672 30.9989 9.5 30.9989C10.328 30.9989 11 30.3269 11 29.4989C11 28.6709 10.328 27.9989 9.5 27.9989Z" fill="#00716E"/>
<path d="M13.5 28.9989C12.672 28.9989 12 29.6709 12 30.4989C12 31.3269 12.672 31.9989 13.5 31.9989C14.328 31.9989 15 31.3269 15 30.4989C15 29.6709 14.328 28.9989 13.5 28.9989Z" fill="#00716E"/>
<path d="M26.5 27.9989C25.672 27.9989 25 28.6709 25 29.4989C25 30.3269 25.672 30.9989 26.5 30.9989C27.328 30.9989 28 30.3269 28 29.4989C28 28.6709 27.328 27.9989 26.5 27.9989Z" fill="#00716E"/>
<path d="M30.5 26.9989C30.776 26.9989 31 26.7749 31 26.4989C31 26.2229 30.776 25.9989 30.5 25.9989H24.45C24.308 25.9989 24.172 26.0599 24.077 26.1659C23.982 26.2719 23.937 26.4139 23.952 26.5549L23.973 26.7139C23.986 26.8069 24 26.9009 24 26.9989C24 29.2049 22.206 30.9989 20 30.9989C17.794 30.9989 16 29.2049 16 26.9989C16 26.9039 16.014 26.8129 16.026 26.7219L16.046 26.5649C16.05 26.5259 16.047 26.4759 16.043 26.4369C16.0121 26.1869 15.7991 25.9989 15.5471 25.9989H8.50002C8.22402 25.9989 8 26.2229 8 26.4989C8 26.7749 8.22402 26.9989 8.50002 26.9989H15C15 29.7559 17.243 31.9989 20 31.9989C22.757 31.9989 25.0001 29.7559 25.0001 26.9989H30.5Z" fill="#00716E"/>
<path d="M30.5 28.9989C29.672 28.9989 29 29.6709 29 30.4989C29 31.3269 29.672 31.9989 30.5 31.9989C31.328 31.9989 32 31.3269 32 30.4989C32 29.6709 31.328 28.9989 30.5 28.9989Z" fill="#00716E"/>
</svg>
