<svg width="40" height="40" viewBox="0 0 40 40" fill="none" xmlns="http://www.w3.org/2000/svg">
<rect width="40" height="40" rx="20" fill="#00A9A4" fill-opacity="0.3"/>
<path d="M8 26.7781V28.2844C8 28.6727 8.31481 28.9875 8.70312 28.9875C9.09144 28.9875 9.40625 28.6727 9.40625 28.2844V27.4813H30.5938V28.2844C30.5938 28.6727 30.9086 28.9875 31.2969 28.9875C31.6852 28.9875 32 28.6727 32 28.2844V26.7781V24.4688H8V26.7781Z" fill="#00716E"/>
<path d="M29.4141 18.5438H10.5859C9.16006 18.5438 8 19.7038 8 21.1297V23.0625H32V21.1297C32 19.7038 30.8399 18.5438 29.4141 18.5438Z" fill="#00716E"/>
<path d="M17.3643 15.4312C16.7138 15.4312 16.1846 15.9604 16.1846 16.6109V17.1374H23.8158V16.6109C23.8158 15.9604 23.2866 15.4312 22.6362 15.4312H17.3643Z" fill="#00716E"/>
<path d="M14.7783 16.6109C14.7783 15.185 15.9383 14.025 17.3643 14.025H22.6361C24.062 14.025 25.2221 15.185 25.2221 16.6109V17.1375H28.9877V13.5984C28.9877 12.1725 27.8276 11.0125 26.4017 11.0125H13.5986C12.1727 11.0125 11.0127 12.1725 11.0127 13.5984V17.1375H14.7783V16.6109Z" fill="#00716E"/>
</svg>
