<svg width="40" height="40" viewBox="0 0 40 40" fill="none" xmlns="http://www.w3.org/2000/svg">
<g opacity="0.8">
<rect y="-0.00109863" width="39.9997" height="40" rx="19.9999" fill="#00A9A4" fill-opacity="0.3"/>
<path d="M9.91229 19.0139C10.0125 19.2774 9.81689 19.5569 9.53879 19.5569C9.37779 19.5569 9.22579 19.4589 9.16479 19.2999C8.85684 18.4931 8.77869 17.6355 8.85579 16.7544C8.87529 16.5344 9.06879 16.3714 9.28929 16.3909C9.50929 16.4104 9.67229 16.6044 9.65279 16.8244C9.58699 17.5758 9.64289 18.3098 9.91229 19.0139Z" fill="#00716E"/>
<path d="M10.4888 8.6189C10.3673 8.4344 10.4183 8.1864 10.6028 8.0649C10.7873 7.9434 11.0353 7.9944 11.1568 8.1789C11.4558 8.6324 11.5768 9.1854 11.5263 9.8694C11.5108 10.0794 11.3353 10.2399 11.1278 10.2399C10.8959 10.2399 10.7114 10.043 10.7283 9.8104C10.7653 9.3094 10.6873 8.9199 10.4888 8.6189Z" fill="#00716E"/>
<path d="M11.6065 15.0909H8.4C8.179 15.0909 8 14.9119 8 14.6909C8 14.4699 8.179 14.2909 8.4 14.2909H9.3885C9.6359 13.4973 9.92255 12.7405 10.1655 12.0364C10.2375 11.8274 10.4655 11.7169 10.674 11.7889C10.883 11.8614 10.994 12.0889 10.9215 12.2979C10.7234 12.8735 10.4504 13.605 10.228 14.2909H11.6065L11.3985 14.0309C11.261 13.8579 11.289 13.6064 11.4615 13.4684C11.6345 13.3309 11.8862 13.3588 12.024 13.5314C12.8263 14.536 12.8066 14.4905 12.83 14.6139C12.8552 14.74 12.8227 14.8531 12.74 14.9529C12.7309 14.964 12.8107 14.864 12.024 15.8499C11.8874 16.0212 11.6359 16.052 11.4615 15.9129C11.289 15.7754 11.261 15.5234 11.3985 15.3509L11.6065 15.0909Z" fill="#00716E"/>
<path d="M26.2307 8.5704C26.3571 8.3049 26.1625 7.9989 25.8697 7.9989H14.1307C13.8378 7.9989 13.6435 8.3051 13.7697 8.5704C15.6229 12.4787 13.4992 15.96 12.1582 20.4089H27.8422C26.4958 15.942 24.3788 12.4761 26.2307 8.5704ZM20.4002 18.2704C20.4002 18.4914 20.2212 18.6704 20.0002 18.6704C19.7797 18.6704 19.6002 18.4914 19.6002 18.2704V17.6159C19.6002 17.3949 19.7797 17.2159 20.0002 17.2159C20.2212 17.2159 20.4002 17.3949 20.4002 17.6159V18.2704Z" fill="#00716E"/>
<path d="M31.1445 16.7549C31.22 17.6186 31.1484 18.4801 30.8355 19.2999C30.7568 19.5057 30.5257 19.61 30.319 19.5309C30.1125 19.4519 30.009 19.2209 30.088 19.0144C30.3561 18.3132 30.4137 17.581 30.3475 16.8249C30.328 16.6049 30.491 16.4109 30.711 16.3914C30.9315 16.3719 31.125 16.5349 31.1445 16.7549Z" fill="#00716E"/>
<path d="M31.9997 14.6909C31.9997 14.9119 31.8207 15.0909 31.5997 15.0909H28.3932L28.6012 15.3509C28.7387 15.5234 28.7107 15.7754 28.5382 15.9129C28.3637 16.052 28.1123 16.021 27.9757 15.8499C27.1891 14.8639 27.2689 14.9639 27.2597 14.9529C27.122 14.7866 27.1294 14.5862 27.2597 14.4289C27.2689 14.4178 27.1883 14.5173 27.9757 13.5314C28.1136 13.3588 28.3657 13.3309 28.5382 13.4684C28.7107 13.6064 28.7387 13.8579 28.6012 14.0309L28.3932 14.2909H29.7722C29.5509 13.6082 29.2985 12.9352 29.0787 12.2979C29.0062 12.0889 29.1172 11.8614 29.3262 11.7889C29.5347 11.7169 29.7627 11.8279 29.8347 12.0364C30.0798 12.7467 30.3672 13.5066 30.6117 14.2909H31.5997C31.8207 14.2909 31.9997 14.4699 31.9997 14.6909Z" fill="#00716E"/>
<path d="M28.475 9.8694C28.4245 9.1854 28.5455 8.6324 28.8445 8.1789C28.966 7.9944 29.214 7.9434 29.3985 8.0649C29.583 8.1864 29.634 8.4344 29.5125 8.6189C29.314 8.9194 29.236 9.3094 29.273 9.8104C29.29 10.0436 29.1049 10.2399 28.8735 10.2399C28.666 10.2399 28.4905 10.0794 28.475 9.8694Z" fill="#00716E"/>
<path d="M29.3723 20.8284C29.5178 20.9949 29.5008 21.2474 29.3348 21.3929C29.0313 21.6579 28.6858 21.9114 28.3038 22.1474C28.3888 22.5229 28.4643 22.9054 28.5283 23.2954C25.3803 23.7164 23.4418 24.7904 22.0128 25.5824C20.0442 26.674 19.9546 26.6727 17.9873 25.5824C16.5583 24.7904 14.6198 23.7164 11.4713 23.2954C11.5353 22.9054 11.6108 22.5229 11.6958 22.1469C11.3138 21.9109 10.9683 21.6574 10.6648 21.3924C10.4988 21.2469 10.4818 20.9944 10.6273 20.8279C10.7728 20.6619 11.0258 20.6449 11.1918 20.7904C11.4033 20.9754 11.6398 21.1549 11.8978 21.3264C11.9078 21.2869 11.9183 21.2479 11.9288 21.2089H28.0708C28.0813 21.2479 28.0918 21.2874 28.1018 21.3269C28.3598 21.1554 28.5963 20.9759 28.8078 20.7909C28.9743 20.6454 29.2268 20.6619 29.3723 20.8284Z" fill="#00716E"/>
<path d="M20.3994 27.1671V31.9989H27.3364C27.5049 31.9989 27.6554 31.8929 27.7129 31.7344C28.7475 28.8575 28.9063 26.3487 28.6394 24.0876C23.9617 24.713 22.0804 26.8551 20.3994 27.1671Z" fill="#00716E"/>
<path d="M19.6003 27.167C17.9208 26.8549 16.0359 24.7125 11.3604 24.0876C11.0934 26.3487 11.2522 28.8575 12.2868 31.7344C12.3443 31.8929 12.4948 31.9989 12.6633 31.9989H19.6003V27.167Z" fill="#00716E"/>
</g>
</svg>
