<svg width="56" height="54" viewBox="0 0 56 54" fill="none" xmlns="http://www.w3.org/2000/svg">
<rect width="56" height="54" rx="10" fill="#F5F5F5"/>
<path opacity="0.4" d="M42.9999 32.5819C42.9999 36.5344 39.6399 39.7361 35.4549 39.7503H35.4399H20.5749C16.4049 39.7503 12.9999 36.5628 12.9999 32.6103V32.5961C12.9999 32.5961 13.0089 26.3259 13.0209 23.1724C13.0224 22.5803 13.7424 22.2488 14.2329 22.6171C17.7969 25.2875 24.1704 30.1566 24.2499 30.2204C25.3149 31.0264 26.6649 31.4812 28.0449 31.4812C29.4249 31.4812 30.7749 31.0264 31.8399 30.2048C31.9194 30.1552 38.1504 25.432 41.7684 22.7177C42.2604 22.3479 42.9834 22.6794 42.9849 23.2702C42.9999 26.3996 42.9999 32.5819 42.9999 32.5819" fill="#00A9A4"/>
<path d="M42.214 18.0376C40.915 15.7256 38.359 14.2494 35.545 14.2494H20.575C17.761 14.2494 15.205 15.7256 13.906 18.0376C13.615 18.5547 13.753 19.1993 14.2375 19.5648L25.375 27.9783C26.155 28.5733 27.1 28.8694 28.045 28.8694C28.051 28.8694 28.0555 28.8694 28.06 28.8694C28.0645 28.8694 28.0705 28.8694 28.075 28.8694C29.02 28.8694 29.965 28.5733 30.745 27.9783L41.8825 19.5648C42.367 19.1993 42.505 18.5547 42.214 18.0376" fill="#00A9A4"/>
</svg>
