<svg width="56" height="56" viewBox="0 0 56 56" fill="none" xmlns="http://www.w3.org/2000/svg">
<rect width="56" height="56" rx="10" fill="#F5F5F5"/>
<path opacity="0.4" d="M31.6275 18.2349C30.9134 18.103 30.2576 18.5587 30.1217 19.2557C29.9857 19.9527 30.4428 20.6333 31.1375 20.7697C33.2289 21.1774 34.8437 22.7963 35.253 24.8948V24.8963C35.3696 25.5004 35.9014 25.9396 36.5138 25.9396C36.596 25.9396 36.6782 25.9321 36.7618 25.9171C37.4565 25.7777 37.9136 25.0987 37.7776 24.4002C37.1667 21.2658 34.7541 18.845 31.6275 18.2349Z" fill="#00A9A4"/>
<path opacity="0.4" d="M31.5341 13.0119C31.1995 12.9639 30.8634 13.0629 30.596 13.2757C30.3211 13.4916 30.1493 13.8034 30.1119 14.1526C30.0328 14.8586 30.5422 15.4972 31.2473 15.5766C36.1098 16.1193 39.8892 19.9072 40.436 24.7848C40.5092 25.4384 41.0574 25.9315 41.7117 25.9315C41.761 25.9315 41.8088 25.9285 41.8581 25.9225C42.2002 25.8851 42.5049 25.7157 42.7201 25.4459C42.9337 25.176 43.0308 24.8403 42.9919 24.497C42.3107 18.4112 37.6006 13.6879 31.5341 13.0119Z" fill="#00A9A4"/>
<path fill-rule="evenodd" clip-rule="evenodd" d="M26.5476 29.4586C32.5312 35.4405 33.8887 28.5201 37.6985 32.3272C41.3714 35.9991 43.4824 36.7348 38.8289 41.3871C38.246 41.8555 34.5424 47.4914 21.5269 34.4795C8.50978 21.466 14.1424 17.7587 14.611 17.1759C19.2758 12.5108 19.9988 14.6341 23.6717 18.306C27.4815 22.1147 20.564 23.4766 26.5476 29.4586Z" fill="#00A9A4"/>
</svg>
