<svg width="40" height="40" viewBox="0 0 40 40" fill="none" xmlns="http://www.w3.org/2000/svg">
<rect width="40" height="40" rx="20" fill="#00A9A4" fill-opacity="0.3"/>
<path d="M13.7451 13.8253L15.1864 15.2666L16.1807 14.2723L14.7439 12.8354L15.838 12.6971L15.6614 11.3019L12.6007 11.6891L12.2119 14.7277L13.6068 14.9062L13.7451 13.8253Z" fill="#00716E"/>
<path d="M22.8437 8V10.4919C22.8437 11.5772 22.7399 12.6679 22.535 13.7337C22.1875 15.5415 21.5554 17.2728 20.6563 18.8792C19.7571 20.4856 18.612 21.9297 17.2528 23.1713L15.3723 24.8891C14.9721 25.2546 14.7627 25.7745 14.7977 26.3154C14.8615 27.2988 15.7163 27.9653 16.6404 28.0628L21.6005 28.5856C22.8463 28.7159 23.6173 27.1359 22.7203 26.2389L21.7423 25.2609L22.7367 24.2665L23.7147 25.2445C25.5117 27.0417 23.9932 30.2525 21.4531 29.9841L19.8696 29.8172L20.3687 32H27.789V8L22.8437 8Z" fill="#00716E"/>
<path d="M19.9255 10.6169H18.5192C18.5192 10.6169 18.5084 11.698 18.4873 11.9674L19.8892 12.0772C19.9132 11.7715 19.9255 10.6169 19.9255 10.6169Z" fill="#00716E"/>
<path d="M18.7103 16.3761L17.4483 15.7556C17.2553 16.1482 17.0352 16.5325 16.7939 16.8979L17.9676 17.6726C18.2413 17.2579 18.4912 16.8217 18.7103 16.3761Z" fill="#00716E"/>
<path d="M19.6792 13.556L18.3022 13.2704C18.2134 13.6988 18.0962 14.126 17.9541 14.54L19.2841 14.9967C19.4455 14.5269 19.5784 14.0422 19.6792 13.556Z" fill="#00716E"/>
<path d="M13.0742 20.9142L14.0684 19.92L15.0627 20.9142L14.0684 21.9084L13.0742 20.9142Z" fill="#00716E"/>
<path d="M15.0654 18.9262L16.0598 19.9206C16.0598 19.9206 16.8741 19.0902 17.0674 18.8651L16.0006 17.9488C15.8304 18.1471 15.0654 18.9262 15.0654 18.9262Z" fill="#00716E"/>
</svg>
