<svg width="36" height="37" viewBox="0 0 36 37" fill="none" xmlns="http://www.w3.org/2000/svg">
<path d="M0 36.5L2.53049 27.2555C0.968998 24.5495 0.1485 21.482 0.15 18.3365C0.1545 8.50251 8.15698 0.500031 17.9895 0.500031C22.7609 0.501531 27.2399 2.36003 30.6089 5.73202C33.9764 9.10401 35.8304 13.586 35.8289 18.353C35.8244 28.1885 27.8219 36.191 17.9895 36.191C15.0045 36.1895 12.063 35.441 9.45748 34.019L0 36.5ZM9.89548 30.7895C12.4095 32.282 14.8095 33.176 17.9835 33.1775C26.1554 33.1775 32.8124 26.5265 32.8169 18.35C32.8199 10.157 26.1944 3.51502 17.9955 3.51202C9.81748 3.51202 3.16499 10.163 3.16199 18.338C3.16049 21.6755 4.13849 24.1745 5.78099 26.789L4.28249 32.261L9.89548 30.7895ZM26.9759 22.5935C26.8649 22.4075 26.5679 22.2965 26.1209 22.073C25.6754 21.8495 23.4839 20.771 23.0744 20.6225C22.6664 20.474 22.3694 20.399 22.071 20.846C21.774 21.2915 20.919 22.2965 20.6595 22.5935C20.4 22.8905 20.139 22.928 19.6935 22.7045C19.248 22.481 17.811 22.0115 16.1085 20.492C14.784 19.31 13.8885 17.8505 13.629 17.4035C13.3695 16.958 13.602 16.7165 13.824 16.4945C14.025 16.295 14.2695 15.974 14.493 15.713C14.7195 15.455 14.793 15.269 14.943 14.9705C15.0915 14.6735 15.018 14.4125 14.9055 14.189C14.793 13.967 13.902 11.7725 13.5315 10.88C13.1685 10.0115 12.801 10.1285 12.528 10.115L11.673 10.1C11.376 10.1 10.893 10.211 10.485 10.658C10.077 11.105 8.92498 12.182 8.92498 14.3765C8.92498 16.571 10.5225 18.6905 10.7445 18.9875C10.968 19.2845 13.887 23.7875 18.3585 25.718C19.422 26.177 20.253 26.4515 20.8995 26.657C21.9675 26.996 22.9394 26.948 23.7074 26.834C24.5639 26.7065 26.3444 25.7555 26.7164 24.7145C27.0884 23.672 27.0884 22.7795 26.9759 22.5935Z" fill="white"/>
</svg>
