<svg width="20" height="17" viewBox="0 0 20 17" fill="none" xmlns="http://www.w3.org/2000/svg">
<path fill-rule="evenodd" clip-rule="evenodd" d="M18.8321 1.54353C19.1521 1.91761 19.3993 2.34793 19.5612 2.81243C19.8798 3.76711 20.0273 4.77037 19.9969 5.77614V11.0292C19.9956 11.4717 19.963 11.9135 19.8991 12.3513C19.7775 13.1241 19.5057 13.8656 19.0989 14.5342C18.9119 14.8571 18.6849 15.1553 18.4231 15.4215C17.2383 16.5089 15.665 17.0749 14.0574 16.9921H5.93061C4.32049 17.0743 2.74462 16.5086 1.55601 15.4215C1.2974 15.1547 1.07337 14.8566 0.889149 14.5342C0.484751 13.8661 0.21869 13.1238 0.1067 12.3513C0.0354894 11.9142 -0.000192693 11.4721 9.42692e-07 11.0292V5.77614C-0.000172448 5.33743 0.0235732 4.89902 0.0711337 4.46288C0.0811349 4.38636 0.096136 4.31109 0.110982 4.23659C0.135731 4.11241 0.160048 3.99038 0.160048 3.86836C0.250307 3.34204 0.414959 2.83116 0.649079 2.35101C1.34261 0.869157 2.76525 0.114919 5.09481 0.114919H14.8754C16.1802 0.0140072 17.4753 0.406805 18.5032 1.21522C18.6215 1.3156 18.7316 1.4254 18.8321 1.54353ZM4.97033 10.5412H15.0355H15.0533C15.2741 10.5507 15.4896 10.4717 15.6517 10.3217C15.8137 10.1716 15.9088 9.96305 15.9157 9.74255C15.9282 9.54874 15.8644 9.35771 15.7379 9.21014C15.5924 9.01184 15.3618 8.89349 15.1155 8.8907H4.97033C4.51365 8.8907 4.14343 9.26017 4.14343 9.71593C4.14343 10.1717 4.51365 10.5412 4.97033 10.5412Z" fill="#00A9A4"/>
</svg>
